# xmcd
#
# Track frame offsets:
# 150
# 12774
# 28513
# 41086
# 52203
# 67133
# 81401
# 93543
# 106916
# 120922
# 134534
# 148700
# 163730
# 179574
# 194500
#
# Disc length: 2786 seconds
#
#
# Revision: 0
# Processed by: cddbd v1.5.1PL2 Copyright (c) Steve Scherf et al.
# Submitted via: FreeRIP 2.945 
#
DISCID=dd0ae00f
DTITLE=Amor Animal - Peão Carreiro E Praense
DYEAR=1900
DGENRE=Country
TTITLE0=Amor animal
TTITLE1=Sertanejo
TTITLE2=Alô,Campo Grande
TTITLE3=Ela Só Quer Grandão
TTITLE4=Espinho Doido
TTITLE5=O Lobo E A Lua
TTITLE6=Porão Da Vida
TTITLE7=Coração Pede Socorro
TTITLE8=Parede E Meia
TTITLE9=Na Mesma Algema
TTITLE10=Sinal Verde
TTITLE11=O Comilão
TTITLE12=Cowboy Brasileiro
TTITLE13=Oi,Saudade
TTITLE14=Cadeia Do Prazer
EXTD=
EXTT0=
EXTT1=
EXTT2=
EXTT3=
EXTT4=
EXTT5=
EXTT6=
EXTT7=
EXTT8=
EXTT9=
EXTT10=
EXTT11=
EXTT12=
EXTT13=
EXTT14=
PLAYORDER=
